<svg xmlns="http://www.w3.org/2000/svg"  viewBox="0 0 333333 333333" shape-rendering="geometricPrecision" text-rendering="geometricPrecision" image-rendering="optimizeQuality" fill-rule="evenodd" clip-rule="evenodd"><path d="M0 187669h65675l-2629 113689H0V187670zM213954 71862v2719c4763-6987 10325-12500 16732-16891 10300-7060 22634-11111 37250-13685 2348-410 4584 1161 4994 3509s-1161 4584-3509 4994c-13469 2371-24717 6023-33876 12301-7396 5070-13530 11931-18500 21324 35076 3507 55839 88 70924-10890 14954-10882 25036-29680 38231-56739-3867 228-7915 417-12021 607-26579 1235-55691 2589-73876 18579-4654 4092-9194 8998-13617 14754-4276 5565-8521 12026-12731 19418zm-13038-22100c-1478-1982-3125-3554-4948-4823-3568-2484-7979-3941-13216-5088-2329-503-3809-2800-3307-5129 503-2329 2800-3809 5129-3307 6238 1367 11606 3176 16247 6387-341-1053-718-2092-1133-3115-2193-5409-5438-10356-9891-14271-5142-4521-11753-5355-17798-6117l-134-17-31671-1954 8194 16922c5744 10268 13500 15994 23029 18760 8379 2432 18292 2693 29500 1752zm3381 10289c-13376 1291-25350 1106-35810-1931-12247-3556-22160-10862-29407-23944-50-89-96-180-140-270l-4 2-12156-25104c-1265-2620-165-5771 2455-7035 839-405 1731-567 2600-515v-1l40695 2510c225 13 446 41 663 81l128 16c7600 959 15913 2007 23451 8635 5754 5060 9916 11372 12696 18231 3047 7517 4431 15687 4431 23552 0 583-95 1144-270 1669 2053-3080 4134-5989 6242-8732 4852-6313 9763-11635 14730-16002 20441-17973 51161-19402 79208-20705 6475-301 12801-595 19172-1133l1 8c741-61 1508 67 2226 414 2143 1034 3042 3610 2007 5753-15411 31827-26304 53633-44184 66646-17433 12686-40743 16471-80095 12186v34553c16447-22919 32521-23305 58767-23933 5623-134 11752-281 18740-712v1c710-43 1440 90 2126 421 2143 1034 3042 3610 2007 5753-10732 22164-17669 35915-29522 43699-11341 7446-26286 8812-52118 6013v23781l44669 46397 26732-12487c24728-7509 41568 18568 23075 35995-36120 25015-73046 45432-110699 61741-27443 15830-54490 14641-81180-1891l-39492-21535 2198-94366 42444 989c15726 3200 31334 11428 46904 21335l36711-36151v-22557c-35429 3857-56937 607-73201-10708-16693-11614-27143-31254-41159-60201-1034-2143-135-4719 2007-5753 707-341 1462-472 2193-417v-5c5761 450 11623 682 17674 921 25937 1024 55163 2180 73614 18404 8633 7592 14713 13912 18871 20886V60051zm-9475 93608c-5896-7752-12112-13572-18744-18120-8137-5581-17004-9312-26725-12379-2273-717-3535-3143-2817-5416 717-2273 3143-3535 5416-2817 10436 3293 20024 7346 28986 13493 7785 5339 15025 12214 21830 21474-503-7585-1946-13479-4676-18775-3553-6891-9440-13120-18367-20971-16172-14220-43763-15310-68249-16278-3607-143-7152-283-10539-455 11833 24070 21317 40640 35087 50219 13126 9132 30716 12269 58799 10025zm21604-14393c3222-2861 6859-5293 10746-7360 8932-4750 19190-7564 28667-9232 2348-410 4584 1161 4994 3509s-1161 4584-3509 4994c-8711 1533-18080 4089-26104 8355-5854 3113-10985 7141-14563 12357 21962 2195 34652 1012 43673-4912 8830-5798 14937-16673 23302-33715-4100 163-8018 257-11726 346-25191 603-39908 962-55480 25659zm-7865 54127l-31526 31046 30031 699c14901 1247 22363 16553 7636 26154-11761 8206-27000 7371-42598 5604-10767-781-11577 13700-326 14010 3894 393 8166-422 11874-339 19514 436 35672-2920 45867-18106l5214-11422 13588-6347-39760-41298z"/></svg>