<svg xmlns="http://www.w3.org/2000/svg" viewBox="0 0 333333 333333" shape-rendering="geometricPrecision" text-rendering="geometricPrecision" image-rendering="optimizeQuality" fill-rule="evenodd" clip-rule="evenodd"><path d="M120733 0h20538v17470c0 2324 1885 4209 4209 4209s4209-1884 4209-4209V0h13963v17470c0 2324 1885 4209 4209 4209s4209-1884 4209-4209V0h13963v17470c0 2324 1885 4209 4209 4209s4209-1884 4209-4209V0h17946c2324 0 4209 1884 4209 4209v32846c0 2324-1884 4209-4209 4209h-6501v12009c10811 4297 20110 11651 26814 20981 7107 9891 11303 21983 11303 34989v197756c0 6799-247 12896-3005 17781-3001 5315-8392 8554-18361 8554H113847c-6749 0-12881-2758-17325-7201-4443-4443-7201-10576-7201-17325V111952c0-13613 4396-26264 11841-36606 7047-9789 16836-17493 28218-21967V41264h-8646c-2324 0-4209-1884-4209-4209V4209c0-2324 1885-4209 4209-4209zM97738 115648c27670 9014 52672 1113 74881-5907 23583-7454 44256-13984 62974-601-22-11172-3615-21532-9691-29987-6228-8667-15062-15356-25330-18896-1783-488-3095-2120-3095-4059V41264h-59680v15044h-12c0 1755-1109 3391-2865 3978-10924 3686-20330 10761-26952 19960-6431 8934-10230 19890-10230 31706v3697zm137857 4431c-16736-16126-36991-9727-60444-2315-22758 7194-48296 15263-77413 6676v184368c0 4426 1813 8452 4735 11373 2921 2922 6948 4735 11373 4735h108800c6383 0 9571-1607 11061-4246 1732-3068 1888-8035 1888-13672V120079z"/></svg>