<svg xmlns="http://www.w3.org/2000/svg" viewBox="0 0 1326.71 1333.33" shape-rendering="geometricPrecision" text-rendering="geometricPrecision" image-rendering="optimizeQuality" fill-rule="evenodd" clip-rule="evenodd"><path d="M1007.07 497.82l308.62 308.62c7.35 7.35 11.02 17.02 11.02 26.65 0 9.65-3.68 19.31-11.02 26.66l-462.56 462.56c-.7.7-1.43 1.34-2.19 1.94a37.456 37.456 0 01-24.47 9.09c-9.64 0-19.31-3.68-26.66-11.03l-307.88-307.89-6.85 18.81c-4.58 12.63-18.54 19.16-31.17 14.58a24.247 24.247 0 01-8.91-5.67l-.04.05-140.92-140.92c-9.52-9.53-9.52-24.97 0-34.5l562.74-562.74c9.52-9.53 24.97-9.53 34.5 0l143.26 143.26c9.52 9.53 9.52 24.97 0 34.5a24.238 24.238 0 01-10.61 6.22l-26.85 9.81zm-496.7 466.05l316.11 316.11 446.87-446.88-316.82-316.81-121.1 44.23-56.11 199.98c-2.34 8.35-8.76 14.45-16.49 16.76v.01l-206.96 61.79-45.51 124.82zM7.15 484.76L484.76 7.15c9.52-9.52 24.98-9.52 34.5 0L858.71 346.6c9.52 9.52 9.52 24.98 0 34.5L381.1 858.71c-9.52 9.52-24.98 9.52-34.5 0L7.15 519.26c-9.52-9.52-9.52-24.98 0-34.5zM502.01 58.9L58.9 502.01l304.95 304.95 443.11-443.11L502.01 58.9zM355.72 179.2c-9.52-9.52-9.52-24.98 0-34.5s24.98-9.52 34.5 0l330.9 330.9c9.52 9.52 9.52 24.98 0 34.5s-24.98 9.52-34.5 0l-330.9-330.9zm-182.12 472c-9.52 9.52-24.98 9.52-34.5 0s-9.52-24.98 0-34.5l477.61-477.61c9.52-9.52 24.98-9.52 34.5 0s9.52 24.98 0 34.5L173.6 651.2zm79.02-364.09c-9.52-9.52-9.52-24.98 0-34.5s24.98-9.52 34.5 0l332.1 332.11c9.52 9.52 9.52 24.98 0 34.5s-24.98 9.52-34.5 0l-332.1-332.11zm51.19 474.16c-9.52 9.52-24.98 9.52-34.5 0s-9.52-24.97 0-34.5l458.32-458.32c9.52-9.52 24.98-9.52 34.5 0s9.52 24.97 0 34.5L303.81 761.27zM143.74 389.25c-9.52-9.52-9.52-24.98 0-34.5s24.98-9.52 34.5 0l334.78 334.78c9.52 9.52 9.52 24.98 0 34.5s-24.98 9.52-34.5 0L143.74 389.25z" fill-rule="nonzero"/></svg>