<svg xmlns="http://www.w3.org/2000/svg" viewBox="0 0 1333.35 1165.48" shape-rendering="geometricPrecision" text-rendering="geometricPrecision" image-rendering="optimizeQuality" fill-rule="evenodd" clip-rule="evenodd"><path d="M660.09 186.61C746.98 95.98 807.82 17.66 941.78 2.27c251.42-28.91 482.6 228.48 355.64 481.91-36.17 72.2-109.7 157.99-191.08 242.23-89.35 92.47-188.16 183.06-257.42 251.77l-188.82 187.3-156-150.28C316.41 834.41 10.34 606.89.25 324.97-6.82 127.5 149.01 1 328.24 3.34c160.2 2.08 227.54 81.81 331.87 183.26v.01zM426.51 557.29c-12.08-11.61-18.33-27.04-18.65-42.6-.3-15.53 5.32-31.22 16.91-43.3 11.59-12.07 27.03-18.33 42.57-18.64 15.56-.33 31.23 5.28 43.32 16.9l92.46 88.51 219.84-204.25 7.45 5.67-7.46-5.7c.56-.76 1.32-1.37 2.02-1.97 12.41-10.63 27.89-15.56 43.07-14.72v-.02l.73.07a60.562 60.562 0 0141.18 20.07c11.2 12.5 16.27 28.36 15.43 43.87h.02l-.07.74c-1 14.98-7.55 29.64-19.42 40.58L644.46 686.36l.02.02c-.45.57-.98 1.09-1.56 1.54-11.68 10.26-26.43 15.3-41.1 15.04-14.79-.26-29.54-5.87-41.03-16.91L426.5 557.3z"/></svg>