<svg xmlns="http://www.w3.org/2000/svg" viewBox="0 0 333334 321478" shape-rendering="geometricPrecision" text-rendering="geometricPrecision" image-rendering="optimizeQuality" fill-rule="evenodd" clip-rule="evenodd"><path d="M99651 71090h45465V18207H9104C4076 18207 1 14131 1 9103S4076-1 9104-1h315127c5028 0 9104 4076 9104 9104s-4076 9104-9104 9104h-73412l31626 31626c3554 3554 3554 9319 0 12873-3555 3554-9319 3554-12873 0l-44499-44499h-61749v52883h39625c8344 0 15925 3409 21416 8901 5492 5491 8901 13072 8901 21417 0 6342-1970 12242-5326 17120h3310c8343 0 15923 3411 21415 8902 5493 5492 8903 13075 8903 21416 0 6341-1972 12241-5330 17120h3034c8343 0 15923 3411 21415 8902 5492 5493 8902 13075 8902 21416 0 8340-3411 15921-8903 21414-5493 5493-13074 8903-21414 8903h-2470c3357 4879 5327 10780 5327 17121 0 8341-3410 15923-8902 21415s-13074 8902-21415 8902h-509c3356 4878 5327 10780 5327 17120 0 8342-3410 15924-8902 21415-5491 5493-13073 8903-21415 8903H96291c-8342 0-15924-3410-21416-8902-5491-5491-8901-13072-8901-21415 0-6341 1970-12242 5326-17120h-508c-8342 0-15924-3409-21416-8902-5491-5491-8902-13072-8902-21415 0-6341 1970-12243 5326-17121h-2469c-8340 0-15922-3410-21416-8902-5491-5492-8902-13072-8902-21415 0-8344 3409-15925 8900-21417 5493-5492 13073-8901 21417-8901h3031c-3357-4878-5328-10779-5328-17120 0-8344 3409-15925 8901-21417 5491-5491 13072-8901 21417-8901h3309c-3356-4878-5326-10778-5326-17120 0-8344 3409-15925 8900-21417 5493-5491 13074-8901 21417-8901zm51648 75432c13741 0 26181 5570 35186 14575 1528 1528 2956 3154 4275 4869h43761c3482-671 6607-2391 9032-4816 3163-3163 5128-7520 5128-12304 0-4785-1964-9143-5128-12306-3163-3163-7519-5127-12305-5127h-23959c-1419 205-2869 313-4343 313H99649c-1474 0-2924-107-4343-313H71347c-4787 0-9144 1963-12307 5126-3162 3163-5126 7520-5126 12307 0 4786 1964 9143 5126 12305 2424 2424 5549 4144 9030 4815h43763c1320-1715 2748-3341 4275-4869 9006-9005 21446-14575 35187-14575zm46738 32641c1956 5338 3024 11105 3024 17120 0 6016-1068 11782-3024 17121h33773c1472 0 2920 107 4337 312h23124c4783 0 9140-1965 12304-5128 3163-3164 5128-7520 5128-12304 0-4785-1964-9143-5127-12306-3163-3162-7519-5126-12305-5126h-23683c-1418 205-2866 312-4338 312h-33212zm-7276 47438c-1319 1715-2748 3341-4275 4870-9005 9004-21446 14575-35186 14575-13741 0-26181-5570-35186-14576-1527-1527-2956-3154-4275-4869H67516c-3483 671-6609 2391-9033 4814-3162 3162-5126 7519-5126 12307 0 4786 1964 9143 5126 12306 3163 3163 7520 5126 12306 5126h21159c1418-205 2867-312 4340-312h110022c1473 0 2921 107 4339 312h21160c4785 0 9143-1964 12306-5127s5127-7520 5127-12305c0-4786-1963-9143-5126-12306-2424-2424-5550-4143-9032-4815h-44323zm-86199-13196c-1956-5339-3024-11105-3024-17121 0-6015 1067-11782 3024-17120H71351c-1472 0-2921-107-4339-312H43330c-4787 0-9144 1963-12307 5126-3163 3162-5126 7520-5126 12307 0 4786 1964 9143 5127 12305 3163 3163 7522 5128 12306 5128h23124c1417-205 2865-312 4337-312h33772zm72814-43197c-6673-6672-15893-10800-26076-10800-10184 0-19404 4128-26077 10800-6672 6672-10800 15893-10800 26076s4128 19404 10800 26076c6673 6673 15893 10801 26076 10801 10184 0 19404-4128 26076-10800 6672-6673 10800-15893 10800-26076 0-10184-4128-19404-10800-26076zm-81004-51679h109855c3481-671 6605-2391 9028-4813 3162-3163 5126-7520 5126-12307s-1963-9144-5126-12307c-3162-3163-7519-5126-12306-5126H99652c-4787 0-9144 1963-12307 5126-3162 3163-5126 7520-5126 12307s1963 9144 5126 12307c2422 2422 5546 4142 9028 4813zm113215 155511H93012c-3482 672-6607 2391-9030 4814-3162 3163-5126 7520-5126 12307s1963 9143 5126 12306 7520 5127 12306 5127h110022c4785 0 9142-1964 12305-5127s5127-7520 5127-12305c0-4786-1963-9143-5126-12306-2423-2423-5548-4143-9030-4815z" fill-rule="nonzero"/></svg>