<svg xmlns="http://www.w3.org/2000/svg" viewBox="0 0 2754 3333" shape-rendering="geometricPrecision" text-rendering="geometricPrecision" image-rendering="optimizeQuality" fill-rule="evenodd" clip-rule="evenodd"><path d="M698 2384c51-598 155-1090 583-1285 241 729 50 1427-230 2235h437c275-1292 135-1765-32-2186 264 166 499 524 724 1093 316-589 115-1022-635-1303 429-133 831 37 1209 371-202-762-778-946-1293-511 70-546-155-677-456-797 142 216 249 441 233 700C773 274 385 432 28 808c343-80 698-114 998 87-538-68-839 235-1025 633 225-206 437-340 662-364-236 428-132 806 36 1221z"/></svg>