<svg xmlns="http://www.w3.org/2000/svg" viewBox="0 0 333333 267770" shape-rendering="geometricPrecision" text-rendering="geometricPrecision" image-rendering="optimizeQuality" fill-rule="evenodd" clip-rule="evenodd"><path d="M92979 8790H8790v61374h84906V8790h-717zM102488 0h221353c2329 0 4459 959 6010 2504l9 7 6 9c1546 1552 2504 3681 2504 6010v61895c0 2351-958 4484-2504 6029h-16c-1545 1542-3674 2504-6010 2504h-92270V8791h-45537v19144l32623 37084c1602 1822 1424 4595-394 6197-834 736-1872 1095-2903 1095v3h-97387c-2427 0-4398-1967-4398-4394 0-1294 561-2459 1453-3262l33607-36748V8792h-46147v70167H8528c-2345 0-4480-962-6026-2507C960 74910-1 72777-1 70426V8531c0-2348 958-4483 2503-6026h16C4063 960 6189 1 8528 1h93959zM8529 137996h316275c2348 0 4484 961 6026 2504 1545 1546 2503 3681 2503 6029v112500c0 2332-965 4465-2513 6016l10 9c-1546 1542-3678 2504-6026 2504h-88222c-425 137-879 213-1348 213-473 0-927-76-1352-213H99452c-425 137-879 213-1352 213-469 0-923-76-1348-213H8530c-2335 0-4465-958-6010-2504h-16C959 263509 1 261376 1 259028V146528c0-2351 958-4487 2503-6029h16c1545-1542 3671-2504 6010-2504zm316015 8789h-84916v111983h84916V146785zm-93706 0H102495v26010h128343v-26010zm-137133 0H8789v111983h84916V146785zm8789 111983h128343v-77151H102494v77151zM177240 8790h-19816v20793h-19c0 1057-378 2113-1149 2954l-28336 30985h77726l-27184-30900c-756-791-1222-1859-1222-3040V8789zm75250 145087c1311 0 2500 533 3361 1393 860 860 1393 2047 1393 3360 0 1311-533 2500-1393 3360-860 863-2050 1393-3361 1393-1310 0-2500-530-3360-1393h-3c-860-860-1393-2050-1393-3360 0-1313 533-2500 1393-3360s2050-1393 3363-1393zM62906 15304c1313 0 2504 533 3363 1393 860 860 1393 2050 1393 3360 0 1314-533 2500-1393 3360v3c-863 860-2050 1390-3363 1390-1311 0-2500-530-3360-1390v-3c-860-860-1393-2046-1393-3360 0-1310 533-2500 1393-3360s2050-1393 3360-1393zm178504-6515h-1050v61374h83222V8789h-82171zm24690 7907c863-860 2050-1393 3364-1393 1310 0 2500 533 3360 1393s1393 2050 1393 3360c0 1314-533 2500-1393 3360v3c-859 860-2050 1390-3360 1390-1314 0-2501-530-3361-1390l-3-3c-860-860-1390-2046-1390-3360 0-1310 530-2500 1390-3360zM79672 153876c1311 0 2500 533 3361 1393 863 860 1393 2047 1393 3360 0 1311-533 2500-1393 3360-860 863-2050 1393-3361 1393-1310 0-2500-530-3360-1393-863-860-1393-2050-1393-3360 0-1313 530-2500 1393-3360 860-860 2046-1393 3360-1393z"/></svg>