<svg xmlns="http://www.w3.org/2000/svg" viewBox="0 0 333334 330229" shape-rendering="geometricPrecision" text-rendering="geometricPrecision" image-rendering="optimizeQuality" fill-rule="evenodd" clip-rule="evenodd"><path d="M6140 212386L0 171487c78454 38633 165133 55367 244019 37852l1802-130v-2c2206-157 4341-776 6270-1791 28434-7214 55772-18985 81242-35929v40899c-8290 140318-300774 173077-327194 0zm223626-73509c10320-73878 29680-80248 72979-128028 9120-10070 22150-19059 26809 1800 5600 25070-14490 50499-29119 68759-14210 17720-33259 44739-70669 57469zm-68149 60509c6580-17100 15270-33509 30389-44759 24940-18560 38819-26309 50559 1950 4960 11940 6760 23839 2140 36819l-83089 5990zM15360 158627c52694-32021 130035-44814 200224-35440-10271 2518-20581 9484-33003 18728-9226 6865-16434 15215-22304 24402-5267 8245-9389 17119-12920 26141-1053 2162-1626 4588-1591 7133-45990-3789-92664-16769-130407-40964zm254798-22972c17570 5911 33963 13541 48507 22972-13299 12639-32906 22809-56335 29992 920-5178 1116-10252 711-15263-637-7882-2752-15421-5840-22857-770-1854-1559-3604-2366-5258 5551-2962 10636-6191 15322-9587zM5181 146948c17043-63765 134755-88173 224048-70548-4049 9172-7446 19793-10337 32906-70801-11581-129230 4433-213711 37643zm296016-41215c13791 10471 23759 23317 28169 38595-16638-7249-32256-13403-47092-18526 7319-6636 13495-13528 18924-20069z"/></svg>